#define ic_nav_roundabout_ccw2_2_width 60
#define ic_nav_roundabout_ccw2_2_height 60
static char ic_nav_roundabout_ccw2_2_bits[] = {
  0x00, 0x00, 0x00, 0x00, 0x00, 0x00, 0x00, 0x00, 0x00, 0x00, 0x00, 0x00, 
  0x00, 0x00, 0x00, 0x00, 0x00, 0x00, 0x00, 0x00, 0x00, 0x00, 0x00, 0x00, 
  0x00, 0x00, 0x00, 0x00, 0x00, 0x00, 0x00, 0x00, 0xE0, 0x00, 0x00, 0x00, 
  0x00, 0x00, 0x00, 0x00, 0xE0, 0x3F, 0x00, 0x00, 0x00, 0x00, 0x00, 0x00, 
  0xE0, 0xFF, 0x07, 0x00, 0x00, 0x00, 0x00, 0x00, 0xE0, 0xFF, 0x0F, 0x00, 
  0x00, 0x00, 0x00, 0x00, 0xE0, 0xFF, 0x0F, 0x00, 0x00, 0x00, 0x00, 0x00, 
  0xE0, 0xFF, 0x07, 0x00, 0x00, 0x00, 0x00, 0x00, 0xC0, 0xFF, 0x03, 0x00, 
  0x00, 0x00, 0x00, 0x00, 0xC0, 0xFF, 0x03, 0x00, 0x00, 0x00, 0x00, 0x00, 
  0xC0, 0xFF, 0x07, 0x00, 0x00, 0x00, 0x00, 0x00, 0xC0, 0xFF, 0x0F, 0xF8, 
  0x1F, 0x00, 0x01, 0x00, 0xC0, 0xFF, 0x1F, 0xFE, 0x7F, 0x80, 0x01, 0x00, 
  0x80, 0xFF, 0xBF, 0xFF, 0xFF, 0xC1, 0x00, 0x00, 0x80, 0xFF, 0xFF, 0xFF, 
  0xFF, 0x67, 0x00, 0x00, 0x80, 0xE7, 0xFF, 0xFF, 0xFF, 0x3F, 0x00, 0x00, 
  0x80, 0xC3, 0xFF, 0xFF, 0xFF, 0x1F, 0x00, 0x00, 0x00, 0x81, 0xFF, 0xFF, 
  0xFF, 0x1F, 0x00, 0x00, 0x00, 0x00, 0xFF, 0xFF, 0xFF, 0x3F, 0x00, 0x00, 
  0x00, 0x00, 0xFE, 0x1F, 0xF8, 0x7F, 0x00, 0x00, 0x00, 0x00, 0xFC, 0x07, 
  0xE0, 0x7F, 0x00, 0x00, 0x00, 0x00, 0xF8, 0x03, 0xC0, 0xFF, 0x00, 0x00, 
  0x00, 0x00, 0xF8, 0x01, 0x80, 0xFF, 0x00, 0x00, 0x00, 0x00, 0x08, 0x00, 
  0x00, 0xFF, 0x00, 0x00, 0x00, 0x00, 0x08, 0x00, 0x00, 0xFF, 0x01, 0x00, 
  0x00, 0x00, 0x08, 0x00, 0x00, 0xFE, 0x01, 0x00, 0x00, 0x00, 0x08, 0x00, 
  0x00, 0xFE, 0x01, 0x00, 0x00, 0x00, 0x08, 0x00, 0x00, 0xFE, 0x01, 0x00, 
  0x00, 0x00, 0x08, 0x00, 0x00, 0xFE, 0x01, 0x00, 0x00, 0x00, 0x08, 0x00, 
  0x00, 0xFE, 0x01, 0x00, 0x00, 0x00, 0x08, 0x00, 0x00, 0xFF, 0x01, 0x00, 
  0x00, 0x00, 0x08, 0x00, 0x00, 0xFF, 0x00, 0x00, 0x00, 0x00, 0x18, 0x00, 
  0x80, 0xFF, 0x00, 0x00, 0x00, 0x00, 0x10, 0x00, 0xC0, 0xFF, 0x00, 0x00, 
  0x00, 0x00, 0x30, 0x00, 0xE0, 0x7F, 0x00, 0x00, 0x00, 0x00, 0x60, 0x00, 
  0xF0, 0x7F, 0x00, 0x00, 0x00, 0x00, 0xC0, 0x00, 0xFF, 0x3F, 0x00, 0x00, 
  0x00, 0x00, 0x80, 0xC1, 0xFF, 0x3F, 0x00, 0x00, 0x00, 0x00, 0x00, 0xE7, 
  0xFF, 0x1F, 0x00, 0x00, 0x00, 0x00, 0x00, 0xFC, 0xFF, 0x0F, 0x00, 0x00, 
  0x00, 0x00, 0x00, 0xF0, 0xFF, 0x07, 0x00, 0x00, 0x00, 0x00, 0x00, 0xE0, 
  0xFF, 0x01, 0x00, 0x00, 0x00, 0x00, 0x00, 0xE0, 0xFF, 0x00, 0x00, 0x00, 
  0x00, 0x00, 0x00, 0xE0, 0x1F, 0x00, 0x00, 0x00, 0x00, 0x00, 0x00, 0xE0, 
  0x1F, 0x00, 0x00, 0x00, 0x00, 0x00, 0x00, 0xE0, 0x1F, 0x00, 0x00, 0x00, 
  0x00, 0x00, 0x00, 0xE0, 0x1F, 0x00, 0x00, 0x00, 0x00, 0x00, 0x00, 0xE0, 
  0x1F, 0x00, 0x00, 0x00, 0x00, 0x00, 0x00, 0xE0, 0x1F, 0x00, 0x00, 0x00, 
  0x00, 0x00, 0x00, 0xE0, 0x1F, 0x00, 0x00, 0x00, 0x00, 0x00, 0x00, 0xE0, 
  0x1F, 0x00, 0x00, 0x00, 0x00, 0x00, 0x00, 0xE0, 0x1F, 0x00, 0x00, 0x00, 
  0x00, 0x00, 0x00, 0xE0, 0x1F, 0x00, 0x00, 0x00, 0x00, 0x00, 0x00, 0xE0, 
  0x1F, 0x00, 0x00, 0x00, 0x00, 0x00, 0x00, 0xE0, 0x0F, 0x00, 0x00, 0x00, 
  0x00, 0x00, 0x00, 0xC0, 0x07, 0x00, 0x00, 0x00, 0x00, 0x00, 0x00, 0x00, 
  0x00, 0x00, 0x00, 0x00, 0x00, 0x00, 0x00, 0x00, 0x00, 0x00, 0x00, 0x00, 
  };
