#define ic_nav_roundabout_cw1_3_width 60
#define ic_nav_roundabout_cw1_3_height 60
static char ic_nav_roundabout_cw1_3_bits[] = {
  0x00, 0x00, 0x00, 0x00, 0x00, 0x00, 0x00, 0x00, 0x00, 0x00, 0x00, 0x00, 
  0x00, 0x00, 0x00, 0x00, 0x00, 0x00, 0x00, 0x00, 0x10, 0x00, 0x00, 0x00, 
  0x00, 0x00, 0x00, 0x00, 0x10, 0x00, 0x00, 0x00, 0x00, 0x00, 0x00, 0x00, 
  0x10, 0x00, 0x00, 0x00, 0x00, 0x00, 0x00, 0x00, 0x10, 0x00, 0x00, 0x00, 
  0x00, 0x00, 0x00, 0x00, 0x10, 0x00, 0x00, 0x00, 0x00, 0x00, 0x00, 0x00, 
  0x10, 0x00, 0x00, 0x00, 0x00, 0x00, 0x00, 0x00, 0x10, 0x00, 0x00, 0x00, 
  0x00, 0x00, 0x00, 0x00, 0x10, 0x00, 0x00, 0x00, 0x00, 0x00, 0x00, 0x00, 
  0x30, 0x00, 0x00, 0x00, 0x00, 0x00, 0x00, 0x80, 0xFF, 0x01, 0x00, 0x00, 
  0x00, 0x00, 0x00, 0xE0, 0x00, 0x0E, 0x00, 0x00, 0x00, 0x00, 0x00, 0x30, 
  0x00, 0x18, 0x00, 0x00, 0x00, 0x00, 0x00, 0x08, 0x00, 0x30, 0x00, 0x00, 
  0x00, 0x30, 0x00, 0x04, 0x00, 0x40, 0x00, 0x00, 0x00, 0x38, 0x00, 0x02, 
  0x00, 0xC0, 0x00, 0x00, 0x00, 0x3E, 0x00, 0x03, 0x00, 0x80, 0x01, 0x00, 
  0x00, 0x3F, 0x00, 0x01, 0x00, 0x00, 0x01, 0x00, 0xC0, 0x3F, 0x80, 0x00, 
  0x00, 0x00, 0x03, 0x00, 0xE0, 0xFF, 0xFF, 0x01, 0x00, 0x00, 0x02, 0x00, 
  0xF0, 0xFF, 0xFF, 0x03, 0x00, 0x00, 0x02, 0x00, 0xFC, 0xFF, 0xFF, 0x07, 
  0x00, 0x00, 0x02, 0x00, 0xFE, 0xFF, 0xFF, 0x07, 0x00, 0x00, 0xFE, 0x07, 
  0xFE, 0xFF, 0xFF, 0x07, 0x00, 0x00, 0x06, 0x00, 0xFC, 0xFF, 0xFF, 0x07, 
  0x00, 0x00, 0x02, 0x00, 0xF0, 0xFF, 0xFF, 0x07, 0x00, 0x00, 0x02, 0x00, 
  0xE0, 0xFF, 0xFF, 0x0F, 0x00, 0x00, 0x02, 0x00, 0xC0, 0x3F, 0xF0, 0x0F, 
  0x00, 0x00, 0x03, 0x00, 0x00, 0x3F, 0xF0, 0x1F, 0x00, 0x00, 0x01, 0x00, 
  0x00, 0x3E, 0xF0, 0x3F, 0x00, 0x80, 0x01, 0x00, 0x00, 0x38, 0xE0, 0x7F, 
  0x00, 0xC0, 0x00, 0x00, 0x00, 0x30, 0xE0, 0xFF, 0x03, 0x40, 0x00, 0x00, 
  0x00, 0x00, 0xC0, 0xFF, 0x3F, 0x30, 0x00, 0x00, 0x00, 0x00, 0x80, 0xFF, 
  0x7F, 0x18, 0x00, 0x00, 0x00, 0x00, 0x80, 0xFF, 0xFF, 0x0F, 0x00, 0x00, 
  0x00, 0x00, 0x00, 0xFF, 0xFF, 0x01, 0x00, 0x00, 0x00, 0x00, 0x00, 0xFC, 
  0xFF, 0x00, 0x00, 0x00, 0x00, 0x00, 0x00, 0xF8, 0xFF, 0x00, 0x00, 0x00, 
  0x00, 0x00, 0x00, 0xE0, 0xFF, 0x00, 0x00, 0x00, 0x00, 0x00, 0x00, 0x00, 
  0xFF, 0x00, 0x00, 0x00, 0x00, 0x00, 0x00, 0x00, 0xFF, 0x00, 0x00, 0x00, 
  0x00, 0x00, 0x00, 0x00, 0xFF, 0x00, 0x00, 0x00, 0x00, 0x00, 0x00, 0x00, 
  0xFF, 0x00, 0x00, 0x00, 0x00, 0x00, 0x00, 0x00, 0xFF, 0x00, 0x00, 0x00, 
  0x00, 0x00, 0x00, 0x00, 0xFF, 0x00, 0x00, 0x00, 0x00, 0x00, 0x00, 0x00, 
  0xFF, 0x00, 0x00, 0x00, 0x00, 0x00, 0x00, 0x00, 0xFF, 0x00, 0x00, 0x00, 
  0x00, 0x00, 0x00, 0x00, 0xFF, 0x00, 0x00, 0x00, 0x00, 0x00, 0x00, 0x00, 
  0xFF, 0x00, 0x00, 0x00, 0x00, 0x00, 0x00, 0x00, 0xFF, 0x00, 0x00, 0x00, 
  0x00, 0x00, 0x00, 0x00, 0xFF, 0x00, 0x00, 0x00, 0x00, 0x00, 0x00, 0x00, 
  0xFF, 0x00, 0x00, 0x00, 0x00, 0x00, 0x00, 0x00, 0xFF, 0x00, 0x00, 0x00, 
  0x00, 0x00, 0x00, 0x00, 0xFF, 0x00, 0x00, 0x00, 0x00, 0x00, 0x00, 0x00, 
  0xFF, 0x00, 0x00, 0x00, 0x00, 0x00, 0x00, 0x00, 0xFF, 0x00, 0x00, 0x00, 
  0x00, 0x00, 0x00, 0x00, 0x7E, 0x00, 0x00, 0x00, 0x00, 0x00, 0x00, 0x00, 
  0x3C, 0x00, 0x00, 0x00, 0x00, 0x00, 0x00, 0x00, 0x00, 0x00, 0x00, 0x00, 
  };
