#define ic_nav_arrow_turn_hard_left_width 70
#define ic_nav_arrow_turn_hard_left_height 70
static char ic_nav_arrow_turn_hard_left_bits[] = {
  0x00, 0x00, 0x00, 0x00, 0x00, 0x00, 0x00, 0x00, 0x00, 0x00, 0x00, 0x00, 
  0x00, 0x00, 0x00, 0x00, 0x00, 0x00, 0x00, 0x00, 0x00, 0x00, 0x00, 0x00, 
  0x00, 0x00, 0x00, 0x00, 0x00, 0x00, 0x00, 0x00, 0x00, 0x00, 0x00, 0x00, 
  0x00, 0x00, 0x00, 0x00, 0x00, 0x00, 0x00, 0x00, 0x00, 0x00, 0x00, 0x00, 
  0x00, 0x00, 0x00, 0x00, 0x00, 0x00, 0x00, 0x00, 0x00, 0x00, 0x00, 0x00, 
  0x00, 0x00, 0x00, 0x00, 0x00, 0x00, 0x00, 0x00, 0x00, 0x00, 0x00, 0x00, 
  0x00, 0x00, 0x00, 0x00, 0x00, 0x00, 0x60, 0x00, 0x00, 0x00, 0x00, 0x00, 
  0x00, 0x00, 0x00, 0xFC, 0x01, 0x00, 0x00, 0x00, 0x00, 0x00, 0x00, 0x00, 
  0xFE, 0x03, 0x00, 0x00, 0x00, 0x00, 0x00, 0x00, 0x00, 0xFF, 0x03, 0x00, 
  0x00, 0x00, 0x00, 0x00, 0x00, 0x80, 0xFF, 0x03, 0x00, 0x00, 0x00, 0x00, 
  0x00, 0x00, 0xC0, 0xFF, 0x07, 0x00, 0x00, 0x00, 0x00, 0x00, 0x00, 0xE0, 
  0xFF, 0x07, 0x00, 0x00, 0x00, 0x00, 0x00, 0x00, 0xF0, 0xFF, 0x07, 0x00, 
  0x00, 0x00, 0x00, 0x00, 0x00, 0xF8, 0xFF, 0x07, 0x00, 0x00, 0x00, 0x00, 
  0x00, 0x00, 0xFC, 0xFF, 0x07, 0x00, 0x00, 0x00, 0x00, 0x00, 0x00, 0xFE, 
  0xFF, 0x07, 0x00, 0x00, 0x00, 0x00, 0x00, 0x00, 0xFF, 0xFF, 0x07, 0x00, 
  0x00, 0x00, 0x00, 0x00, 0x80, 0xFF, 0xFF, 0x07, 0x00, 0x00, 0x00, 0x00, 
  0x00, 0xC0, 0xFF, 0xFF, 0x07, 0x00, 0x00, 0x00, 0x00, 0x00, 0xE0, 0xFF, 
  0xFF, 0x07, 0x00, 0x00, 0x00, 0x00, 0x00, 0xF0, 0xFF, 0xFF, 0x07, 0x00, 
  0x00, 0x00, 0x00, 0x00, 0xF8, 0xFF, 0xFF, 0x07, 0x00, 0x00, 0x00, 0x00, 
  0x00, 0xFC, 0xFF, 0xFF, 0x07, 0x00, 0x00, 0x00, 0x00, 0x00, 0xFE, 0x7F, 
  0xFE, 0x07, 0x00, 0x00, 0x00, 0x00, 0x00, 0xFF, 0x3F, 0xFE, 0x07, 0x00, 
  0x00, 0x00, 0x00, 0x80, 0xFF, 0x1F, 0xFE, 0x07, 0x00, 0x00, 0x00, 0x04, 
  0xC0, 0xFF, 0x0F, 0xFE, 0x07, 0x00, 0x00, 0x00, 0x0E, 0xE0, 0xFF, 0x07, 
  0xFE, 0x07, 0x00, 0x00, 0x00, 0x1F, 0xF0, 0xFF, 0x03, 0xFE, 0x07, 0x00, 
  0x00, 0x00, 0x1F, 0xF8, 0xFF, 0x01, 0xFE, 0x07, 0x00, 0x00, 0x00, 0x3F, 
  0xFC, 0xFF, 0x00, 0xFE, 0x07, 0x00, 0x00, 0x80, 0x7F, 0xFE, 0x7F, 0x00, 
  0xFE, 0x07, 0x00, 0x00, 0x80, 0xFF, 0xFF, 0x3F, 0x00, 0xFE, 0x07, 0x00, 
  0x00, 0x80, 0xFF, 0xFF, 0x1F, 0x00, 0xFE, 0x07, 0x00, 0x00, 0x80, 0xFF, 
  0xFF, 0x0F, 0x00, 0xFE, 0x07, 0x00, 0x00, 0x80, 0xFF, 0xFF, 0x07, 0x00, 
  0xFE, 0x07, 0x00, 0x00, 0xC0, 0xFF, 0xFF, 0x03, 0x00, 0xFE, 0x07, 0x00, 
  0x00, 0xC0, 0xFF, 0xFF, 0x01, 0x00, 0xFE, 0x07, 0x00, 0x00, 0xC0, 0xFF, 
  0xFF, 0x00, 0x00, 0xFE, 0x07, 0x00, 0x00, 0xC0, 0xFF, 0x7F, 0x00, 0x00, 
  0xFE, 0x07, 0x00, 0x00, 0xE0, 0xFF, 0xFF, 0x00, 0x00, 0xFE, 0x07, 0x00, 
  0x00, 0xE0, 0xFF, 0xFF, 0x03, 0x00, 0xFE, 0x07, 0x00, 0x00, 0xE0, 0xFF, 
  0xFF, 0x07, 0x00, 0xFE, 0x07, 0x00, 0x00, 0xE0, 0xFF, 0xFF, 0x0F, 0x00, 
  0xFE, 0x07, 0x00, 0x00, 0xE0, 0xFF, 0xFF, 0x0F, 0x00, 0xFE, 0x07, 0x00, 
  0x00, 0xF0, 0xFF, 0xFF, 0x07, 0x00, 0xFE, 0x07, 0x00, 0x00, 0xF0, 0xFF, 
  0xFF, 0x03, 0x00, 0xFE, 0x07, 0x00, 0x00, 0xF0, 0xFF, 0x1F, 0x00, 0x00, 
  0xFE, 0x07, 0x00, 0x00, 0xF0, 0xFF, 0x01, 0x00, 0x00, 0xFE, 0x07, 0x00, 
  0x00, 0xF0, 0x0F, 0x00, 0x00, 0x00, 0xFE, 0x07, 0x00, 0x00, 0x78, 0x00, 
  0x00, 0x00, 0x00, 0xFE, 0x07, 0x00, 0x00, 0x00, 0x00, 0x00, 0x00, 0x00, 
  0xFE, 0x07, 0x00, 0x00, 0x00, 0x00, 0x00, 0x00, 0x00, 0xFE, 0x07, 0x00, 
  0x00, 0x00, 0x00, 0x00, 0x00, 0x00, 0xFE, 0x07, 0x00, 0x00, 0x00, 0x00, 
  0x00, 0x00, 0x00, 0xFE, 0x07, 0x00, 0x00, 0x00, 0x00, 0x00, 0x00, 0x00, 
  0xFE, 0x03, 0x00, 0x00, 0x00, 0x00, 0x00, 0x00, 0x00, 0xFE, 0x03, 0x00, 
  0x00, 0x00, 0x00, 0x00, 0x00, 0x00, 0xFC, 0x01, 0x00, 0x00, 0x00, 0x00, 
  0x00, 0x00, 0x00, 0xF0, 0x00, 0x00, 0x00, 0x00, 0x00, 0x00, 0x00, 0x00, 
  0x00, 0x00, 0x00, 0x00, 0x00, 0x00, 0x00, 0x00, 0x00, 0x00, 0x00, 0x00, 
  0x00, 0x00, 0x00, 0x00, 0x00, 0x00, 0x00, 0x00, 0x00, 0x00, 0x00, 0x00, 
  0x00, 0x00, 0x00, 0x00, 0x00, 0x00, 0x00, 0x00, 0x00, 0x00, 0x00, 0x00, 
  0x00, 0x00, 0x00, 0x00, 0x00, 0x00, 0x00, 0x00, 0x00, 0x00, 0x00, 0x00, 
  0x00, 0x00, 0x00, 0x00, 0x00, 0x00, 0x00, 0x00, 0x00, 0x00, 0x00, 0x00, 
  0x00, 0x00, 0x00, 0x00, 0x00, 0x00, };
