#define ic_nav_roundabout_ccw1_2_width 70
#define ic_nav_roundabout_ccw1_2_height 70
static char ic_nav_roundabout_ccw1_2_bits[] = {
  0x00, 0x00, 0x00, 0x00, 0x00, 0x00, 0x00, 0x00, 0x00, 0x00, 0x00, 0x00, 
  0x00, 0x00, 0x00, 0x00, 0x00, 0x00, 0x00, 0x00, 0x00, 0x00, 0x00, 0x00, 
  0x00, 0x00, 0x00, 0x00, 0x00, 0x00, 0x00, 0x00, 0x00, 0x00, 0x00, 0x00, 
  0x00, 0x00, 0x00, 0x00, 0x00, 0x00, 0x80, 0x3F, 0x00, 0x00, 0x00, 0x00, 
  0x00, 0x00, 0x00, 0xFC, 0x3F, 0x00, 0x00, 0x00, 0x00, 0x00, 0x00, 0xE0, 
  0xFF, 0x1F, 0x00, 0x00, 0x00, 0x00, 0x00, 0x00, 0xF0, 0xFF, 0x1F, 0x00, 
  0x00, 0x00, 0x00, 0x00, 0x00, 0xF0, 0xFF, 0x1F, 0x00, 0x00, 0x00, 0x00, 
  0x00, 0x00, 0xF0, 0xFF, 0x1F, 0x00, 0x00, 0x00, 0x00, 0x00, 0x00, 0xC0, 
  0xFF, 0x1F, 0x00, 0x00, 0x00, 0x00, 0x00, 0x00, 0x80, 0xFF, 0x1F, 0x00, 
  0x00, 0x00, 0x00, 0x00, 0x00, 0xC0, 0xFF, 0x0F, 0x00, 0x00, 0x00, 0x00, 
  0x00, 0x00, 0xE0, 0xFF, 0x0F, 0x00, 0x00, 0x00, 0x00, 0x00, 0x00, 0xF0, 
  0xFF, 0x0F, 0x00, 0x00, 0x00, 0x00, 0x00, 0x00, 0xF8, 0xFF, 0x0F, 0x00, 
  0x00, 0x00, 0x00, 0x00, 0x00, 0xFC, 0xFF, 0x0F, 0x00, 0x00, 0x0C, 0x00, 
  0x00, 0x00, 0xFE, 0xFF, 0x07, 0x00, 0x00, 0x18, 0x00, 0x00, 0x00, 0xFF, 
  0xDF, 0x07, 0x00, 0x00, 0x30, 0x00, 0xFC, 0x87, 0xFF, 0x8F, 0x07, 0x00, 
  0x00, 0x60, 0x80, 0x0F, 0xFF, 0xFF, 0x87, 0x07, 0x00, 0x00, 0xC0, 0xE0, 
  0x01, 0xF0, 0xFF, 0x03, 0x03, 0x00, 0x00, 0x80, 0x71, 0x00, 0xF0, 0xFF, 
  0x01, 0x00, 0x00, 0x00, 0x00, 0x1F, 0x00, 0xF0, 0xFF, 0x00, 0x00, 0x00, 
  0x00, 0x00, 0x0E, 0x00, 0xF0, 0x7F, 0x00, 0x00, 0x00, 0x00, 0x00, 0x06, 
  0x00, 0xF0, 0x7F, 0x00, 0x00, 0x00, 0x00, 0x00, 0x03, 0x00, 0xE0, 0xFF, 
  0x00, 0x00, 0x00, 0x00, 0x00, 0x01, 0x00, 0xE0, 0xFF, 0x00, 0x00, 0x00, 
  0x00, 0x80, 0x01, 0x00, 0xC0, 0xFF, 0x01, 0x00, 0x00, 0x00, 0x80, 0x00, 
  0x00, 0x80, 0xFF, 0x01, 0x00, 0x00, 0x00, 0xC0, 0x00, 0x00, 0x80, 0xFF, 
  0x01, 0x00, 0x00, 0x00, 0xC0, 0x00, 0x00, 0x00, 0xFF, 0x01, 0x00, 0x00, 
  0x00, 0xC0, 0x00, 0x00, 0x00, 0xFF, 0x01, 0x00, 0x00, 0x00, 0xC0, 0x00, 
  0x00, 0x00, 0xFF, 0x01, 0x00, 0x00, 0x00, 0x40, 0x00, 0x00, 0x00, 0xFF, 
  0x01, 0x00, 0x00, 0x00, 0xC0, 0x00, 0x00, 0x00, 0xFF, 0x01, 0x00, 0x00, 
  0x00, 0xC0, 0x00, 0x00, 0x00, 0xFF, 0x01, 0x00, 0x00, 0x00, 0xC0, 0x00, 
  0x00, 0x00, 0xFF, 0x01, 0x00, 0x00, 0x00, 0xC0, 0x00, 0x00, 0x80, 0xFF, 
  0x01, 0x00, 0x00, 0x00, 0x80, 0x00, 0x00, 0x80, 0xFF, 0x01, 0x00, 0x00, 
  0x00, 0x80, 0x01, 0x00, 0xC0, 0xFF, 0x01, 0x00, 0x00, 0x00, 0x00, 0x01, 
  0x00, 0xE0, 0xFF, 0x00, 0x00, 0x00, 0x00, 0x00, 0x03, 0x00, 0xF0, 0xFF, 
  0x00, 0x00, 0x00, 0x00, 0x00, 0x06, 0x00, 0xF8, 0x7F, 0x00, 0x00, 0x00, 
  0x00, 0x00, 0x0C, 0x00, 0xFF, 0x7F, 0x00, 0x00, 0x00, 0x00, 0x00, 0x18, 
  0xF0, 0xFF, 0x3F, 0x00, 0x00, 0x00, 0x00, 0x00, 0x30, 0xF8, 0xFF, 0x1F, 
  0x00, 0x00, 0x00, 0x00, 0x00, 0xE0, 0xFC, 0xFF, 0x1F, 0x00, 0x00, 0x00, 
  0x00, 0x00, 0x80, 0xFF, 0xFF, 0x0F, 0x00, 0x00, 0x00, 0x00, 0x00, 0x00, 
  0xFE, 0xFF, 0x07, 0x00, 0x00, 0x00, 0x00, 0x00, 0x00, 0xFC, 0xFF, 0x01, 
  0x00, 0x00, 0x00, 0x00, 0x00, 0x00, 0xFC, 0xFF, 0x00, 0x00, 0x00, 0x00, 
  0x00, 0x00, 0x00, 0xFC, 0x3F, 0x00, 0x00, 0x00, 0x00, 0x00, 0x00, 0x00, 
  0xFC, 0x0F, 0x00, 0x00, 0x00, 0x00, 0x00, 0x00, 0x00, 0xFC, 0x07, 0x00, 
  0x00, 0x00, 0x00, 0x00, 0x00, 0x00, 0xFC, 0x07, 0x00, 0x00, 0x00, 0x00, 
  0x00, 0x00, 0x00, 0xFC, 0x07, 0x00, 0x00, 0x00, 0x00, 0x00, 0x00, 0x00, 
  0xFC, 0x07, 0x00, 0x00, 0x00, 0x00, 0x00, 0x00, 0x00, 0xFC, 0x07, 0x00, 
  0x00, 0x00, 0x00, 0x00, 0x00, 0x00, 0xFC, 0x07, 0x00, 0x00, 0x00, 0x00, 
  0x00, 0x00, 0x00, 0xFC, 0x07, 0x00, 0x00, 0x00, 0x00, 0x00, 0x00, 0x00, 
  0xFC, 0x07, 0x00, 0x00, 0x00, 0x00, 0x00, 0x00, 0x00, 0xFC, 0x07, 0x00, 
  0x00, 0x00, 0x00, 0x00, 0x00, 0x00, 0xFC, 0x07, 0x00, 0x00, 0x00, 0x00, 
  0x00, 0x00, 0x00, 0xFC, 0x07, 0x00, 0x00, 0x00, 0x00, 0x00, 0x00, 0x00, 
  0xF8, 0x07, 0x00, 0x00, 0x00, 0x00, 0x00, 0x00, 0x00, 0xF8, 0x03, 0x00, 
  0x00, 0x00, 0x00, 0x00, 0x00, 0x00, 0xF0, 0x01, 0x00, 0x00, 0x00, 0x00, 
  0x00, 0x00, 0x00, 0x00, 0x00, 0x00, 0x00, 0x00, 0x00, 0x00, 0x00, 0x00, 
  0x00, 0x00, 0x00, 0x00, 0x00, 0x00, };
