#define ic_nav_roundabout_cw1_2_width 60
#define ic_nav_roundabout_cw1_2_height 60
static char ic_nav_roundabout_cw1_2_bits[] = {
  0x00, 0x00, 0x00, 0x00, 0x00, 0x00, 0x00, 0x00, 0x00, 0x00, 0x00, 0x00, 
  0x00, 0x00, 0x00, 0x00, 0x00, 0x00, 0x00, 0x00, 0x00, 0x00, 0x00, 0x00, 
  0x80, 0x03, 0x00, 0x00, 0x00, 0x00, 0x00, 0x00, 0x80, 0xFF, 0x00, 0x00, 
  0x00, 0x00, 0x00, 0x00, 0x80, 0xFF, 0x1F, 0x00, 0x00, 0x00, 0x00, 0x00, 
  0x00, 0xFF, 0x7F, 0x00, 0x00, 0x00, 0x00, 0x00, 0x00, 0xFF, 0x7F, 0x00, 
  0x00, 0x00, 0x00, 0x00, 0x00, 0xFF, 0x3F, 0x00, 0x00, 0x00, 0x00, 0x00, 
  0x00, 0xFF, 0x0F, 0x00, 0x00, 0x00, 0x00, 0x00, 0x00, 0xFF, 0x0F, 0x00, 
  0x00, 0x00, 0x00, 0x00, 0x00, 0xFF, 0x1F, 0x00, 0x00, 0x00, 0x00, 0x00, 
  0x00, 0xFE, 0x3F, 0x00, 0x00, 0x00, 0x00, 0x00, 0x00, 0xFE, 0x7F, 0x00, 
  0x00, 0x00, 0x00, 0x00, 0x00, 0xFE, 0xFF, 0x00, 0x00, 0x00, 0x00, 0x00, 
  0x00, 0xFE, 0xFF, 0x01, 0x00, 0x00, 0x06, 0x00, 0x00, 0x9E, 0xFF, 0x83, 
  0x1F, 0x00, 0x03, 0x00, 0x00, 0x1C, 0xFF, 0xFF, 0xF0, 0x80, 0x01, 0x00, 
  0x00, 0x0C, 0xFE, 0x1F, 0x80, 0xC3, 0x00, 0x00, 0x00, 0x00, 0xFC, 0x1F, 
  0x00, 0x66, 0x00, 0x00, 0x00, 0x00, 0xF8, 0x1F, 0x00, 0x38, 0x00, 0x00, 
  0x00, 0x00, 0xF0, 0x1F, 0x00, 0x10, 0x00, 0x00, 0x00, 0x00, 0xF8, 0x1F, 
  0x00, 0x30, 0x00, 0x00, 0x00, 0x00, 0xF8, 0x0F, 0x00, 0x20, 0x00, 0x00, 
  0x00, 0x00, 0xFC, 0x07, 0x00, 0x40, 0x00, 0x00, 0x00, 0x00, 0xFC, 0x07, 
  0x00, 0x40, 0x00, 0x00, 0x00, 0x00, 0xFC, 0x03, 0x00, 0xC0, 0x00, 0x00, 
  0x00, 0x00, 0xFC, 0x03, 0x00, 0x80, 0x00, 0x00, 0x00, 0x00, 0xFC, 0x03, 
  0x00, 0x80, 0x00, 0x00, 0x00, 0x00, 0xFC, 0x03, 0x00, 0x80, 0x00, 0x00, 
  0x00, 0x00, 0xFC, 0x03, 0x00, 0x80, 0x00, 0x00, 0x00, 0x00, 0xFC, 0x03, 
  0x00, 0x80, 0x00, 0x00, 0x00, 0x00, 0xFC, 0x03, 0x00, 0xC0, 0x00, 0x00, 
  0x00, 0x00, 0xFC, 0x07, 0x00, 0x40, 0x00, 0x00, 0x00, 0x00, 0xFC, 0x07, 
  0x00, 0x40, 0x00, 0x00, 0x00, 0x00, 0xF8, 0x0F, 0x00, 0x60, 0x00, 0x00, 
  0x00, 0x00, 0xF8, 0x1F, 0x00, 0x20, 0x00, 0x00, 0x00, 0x00, 0xF0, 0x7F, 
  0x00, 0x10, 0x00, 0x00, 0x00, 0x00, 0xF0, 0xFF, 0x07, 0x08, 0x00, 0x00, 
  0x00, 0x00, 0xE0, 0xFF, 0x0F, 0x06, 0x00, 0x00, 0x00, 0x00, 0xC0, 0xFF, 
  0x1F, 0x03, 0x00, 0x00, 0x00, 0x00, 0x80, 0xFF, 0xFF, 0x00, 0x00, 0x00, 
  0x00, 0x00, 0x00, 0xFF, 0x3F, 0x00, 0x00, 0x00, 0x00, 0x00, 0x00, 0xFE, 
  0x3F, 0x00, 0x00, 0x00, 0x00, 0x00, 0x00, 0xF8, 0x3F, 0x00, 0x00, 0x00, 
  0x00, 0x00, 0x00, 0xE0, 0x3F, 0x00, 0x00, 0x00, 0x00, 0x00, 0x00, 0xC0, 
  0x3F, 0x00, 0x00, 0x00, 0x00, 0x00, 0x00, 0xC0, 0x3F, 0x00, 0x00, 0x00, 
  0x00, 0x00, 0x00, 0xC0, 0x3F, 0x00, 0x00, 0x00, 0x00, 0x00, 0x00, 0xC0, 
  0x3F, 0x00, 0x00, 0x00, 0x00, 0x00, 0x00, 0xC0, 0x3F, 0x00, 0x00, 0x00, 
  0x00, 0x00, 0x00, 0xC0, 0x3F, 0x00, 0x00, 0x00, 0x00, 0x00, 0x00, 0xC0, 
  0x3F, 0x00, 0x00, 0x00, 0x00, 0x00, 0x00, 0xC0, 0x3F, 0x00, 0x00, 0x00, 
  0x00, 0x00, 0x00, 0xC0, 0x3F, 0x00, 0x00, 0x00, 0x00, 0x00, 0x00, 0xC0, 
  0x1F, 0x00, 0x00, 0x00, 0x00, 0x00, 0x00, 0xC0, 0x1F, 0x00, 0x00, 0x00, 
  0x00, 0x00, 0x00, 0x80, 0x0F, 0x00, 0x00, 0x00, 0x00, 0x00, 0x00, 0x00, 
  0x00, 0x00, 0x00, 0x00, 0x00, 0x00, 0x00, 0x00, 0x00, 0x00, 0x00, 0x00, 
  };
