#define ic_nav_roundabout_cw2_2_width 60
#define ic_nav_roundabout_cw2_2_height 60
static char ic_nav_roundabout_cw2_2_bits[] = {
  0x00, 0x00, 0x00, 0x00, 0x00, 0x00, 0x00, 0x00, 0x00, 0x00, 0x00, 0x00, 
  0x00, 0x00, 0x00, 0x00, 0x00, 0x00, 0x00, 0x00, 0x00, 0x00, 0x00, 0x00, 
  0x00, 0x00, 0x00, 0x00, 0x00, 0x00, 0x00, 0x00, 0x00, 0x00, 0x00, 0x00, 
  0x00, 0x00, 0x70, 0x00, 0x00, 0x00, 0x00, 0x00, 0x00, 0xC0, 0x7F, 0x00, 
  0x00, 0x00, 0x00, 0x00, 0x00, 0xFE, 0x7F, 0x00, 0x00, 0x00, 0x00, 0x00, 
  0x00, 0xFF, 0x7F, 0x00, 0x00, 0x00, 0x00, 0x00, 0x00, 0xFF, 0x7F, 0x00, 
  0x00, 0x00, 0x00, 0x00, 0x00, 0xFE, 0x7F, 0x00, 0x00, 0x00, 0x00, 0x00, 
  0x00, 0xFC, 0x3F, 0x00, 0x00, 0x00, 0x00, 0x00, 0x00, 0xFC, 0x3F, 0x00, 
  0x00, 0x00, 0x00, 0x00, 0x00, 0xFE, 0x3F, 0x00, 0x00, 0x08, 0x80, 0xFF, 
  0x01, 0xFF, 0x3F, 0x00, 0x00, 0x18, 0xE0, 0xFF, 0x87, 0xFF, 0x3F, 0x00, 
  0x00, 0x30, 0xF8, 0xFF, 0xDF, 0xFF, 0x1F, 0x00, 0x00, 0x60, 0xFE, 0xFF, 
  0xFF, 0xFF, 0x1F, 0x00, 0x00, 0xC0, 0xFF, 0xFF, 0xFF, 0x7F, 0x1E, 0x00, 
  0x00, 0x80, 0xFF, 0xFF, 0xFF, 0x3F, 0x1C, 0x00, 0x00, 0x80, 0xFF, 0xFF, 
  0xFF, 0x1F, 0x08, 0x00, 0x00, 0xC0, 0xFF, 0xFF, 0xFF, 0x0F, 0x00, 0x00, 
  0x00, 0xE0, 0xFF, 0x81, 0xFF, 0x07, 0x00, 0x00, 0x00, 0xE0, 0x7F, 0x00, 
  0xFE, 0x03, 0x00, 0x00, 0x00, 0xF0, 0x3F, 0x00, 0xFC, 0x01, 0x00, 0x00, 
  0x00, 0xF0, 0x1F, 0x00, 0xF8, 0x01, 0x00, 0x00, 0x00, 0xF0, 0x0F, 0x00, 
  0x00, 0x01, 0x00, 0x00, 0x00, 0xF8, 0x0F, 0x00, 0x00, 0x01, 0x00, 0x00, 
  0x00, 0xF8, 0x07, 0x00, 0x00, 0x01, 0x00, 0x00, 0x00, 0xF8, 0x07, 0x00, 
  0x00, 0x01, 0x00, 0x00, 0x00, 0xF8, 0x07, 0x00, 0x00, 0x01, 0x00, 0x00, 
  0x00, 0xF8, 0x07, 0x00, 0x00, 0x01, 0x00, 0x00, 0x00, 0xF8, 0x07, 0x00, 
  0x00, 0x01, 0x00, 0x00, 0x00, 0xF8, 0x0F, 0x00, 0x00, 0x01, 0x00, 0x00, 
  0x00, 0xF0, 0x0F, 0x00, 0x00, 0x01, 0x00, 0x00, 0x00, 0xF0, 0x1F, 0x00, 
  0x80, 0x01, 0x00, 0x00, 0x00, 0xF0, 0x3F, 0x00, 0x80, 0x00, 0x00, 0x00, 
  0x00, 0xE0, 0x7F, 0x00, 0xC0, 0x00, 0x00, 0x00, 0x00, 0xE0, 0xFF, 0x00, 
  0x60, 0x00, 0x00, 0x00, 0x00, 0xC0, 0xFF, 0x0F, 0x30, 0x00, 0x00, 0x00, 
  0x00, 0xC0, 0xFF, 0x3F, 0x18, 0x00, 0x00, 0x00, 0x00, 0x80, 0xFF, 0x7F, 
  0x0E, 0x00, 0x00, 0x00, 0x00, 0x00, 0xFF, 0xFF, 0x03, 0x00, 0x00, 0x00, 
  0x00, 0x00, 0xFE, 0xFF, 0x00, 0x00, 0x00, 0x00, 0x00, 0x00, 0xF8, 0x7F, 
  0x00, 0x00, 0x00, 0x00, 0x00, 0x00, 0xF0, 0x7F, 0x00, 0x00, 0x00, 0x00, 
  0x00, 0x00, 0x80, 0x7F, 0x00, 0x00, 0x00, 0x00, 0x00, 0x00, 0x80, 0x7F, 
  0x00, 0x00, 0x00, 0x00, 0x00, 0x00, 0x80, 0x7F, 0x00, 0x00, 0x00, 0x00, 
  0x00, 0x00, 0x80, 0x7F, 0x00, 0x00, 0x00, 0x00, 0x00, 0x00, 0x80, 0x7F, 
  0x00, 0x00, 0x00, 0x00, 0x00, 0x00, 0x80, 0x7F, 0x00, 0x00, 0x00, 0x00, 
  0x00, 0x00, 0x80, 0x7F, 0x00, 0x00, 0x00, 0x00, 0x00, 0x00, 0x80, 0x7F, 
  0x00, 0x00, 0x00, 0x00, 0x00, 0x00, 0x80, 0x7F, 0x00, 0x00, 0x00, 0x00, 
  0x00, 0x00, 0x80, 0x7F, 0x00, 0x00, 0x00, 0x00, 0x00, 0x00, 0x80, 0x7F, 
  0x00, 0x00, 0x00, 0x00, 0x00, 0x00, 0x00, 0x7F, 0x00, 0x00, 0x00, 0x00, 
  0x00, 0x00, 0x00, 0x3E, 0x00, 0x00, 0x00, 0x00, 0x00, 0x00, 0x00, 0x00, 
  0x00, 0x00, 0x00, 0x00, 0x00, 0x00, 0x00, 0x00, 0x00, 0x00, 0x00, 0x00, 
  };
